<?xml version="1.0" ?><svg id="Layer_1" style="enable-background:new 0 0 512 512;" version="1.1" viewBox="0 0 512 512" xml:space="preserve" xmlns="http://www.w3.org/2000/svg" xmlns:xlink="http://www.w3.org/1999/xlink"><style type="text/css">
	.st0{fill:#3A3A3A;}
</style><path class="st0" d="M60.3,256c0,108.1,87.6,195.7,195.7,195.7S451.7,364.1,451.7,256S364.1,60.3,256,60.3  S60.3,147.9,60.3,256z M215.4,198.9V233c33.9-1.8,67.8-3.6,101.7-5.5c9.8-0.5,19.6-1.2,29.5-1.8c15.3-1,28.9,8.5,32.4,22.7  c3.6,14.5-3.4,29.1-17.1,35.3c-4.8,2.2-10,2.9-15.3,2.6c-15.1-0.9-30.3-1.8-45.4-2.7c-23.7-1.4-47.3-2.7-71-4  c-4.9-0.3-9.9-0.5-14.9-0.7v34.3c0,8.3-9.7,12.9-16.1,7.6l-8.1-5.7c-20.5-14.6-39.9-30.8-58-48.4l-0.3-0.3c-6.5-5.3-6.5-15.2,0-20.5  c18.2-17.8,37.8-34.2,58.6-49l7.8-5.5C205.7,186,215.4,190.6,215.4,198.9z" id="XMLID_3_"/></svg>