<?xml version="1.0" encoding="UTF-8" standalone="no"?>
<svg
   xmlns:dc="http://purl.org/dc/elements/1.1/"
   xmlns:cc="http://creativecommons.org/ns#"
   xmlns:rdf="http://www.w3.org/1999/02/22-rdf-syntax-ns#"
   xmlns:svg="http://www.w3.org/2000/svg"
   xmlns="http://www.w3.org/2000/svg"
   xmlns:sodipodi="http://sodipodi.sourceforge.net/DTD/sodipodi-0.dtd"
   xmlns:inkscape="http://www.inkscape.org/namespaces/inkscape"
   height="24px"
   version="1.1"
   viewBox="0 0 24 24"
   width="24px"
   id="svg3001"
   inkscape:version="0.48.5 r10040"
   sodipodi:docname="logo.svg">
  <metadata
     id="metadata3015">
    <rdf:RDF>
      <cc:Work
         rdf:about="">
        <dc:format>image/svg+xml</dc:format>
        <dc:type
           rdf:resource="http://purl.org/dc/dcmitype/StillImage" />
        <dc:title></dc:title>
      </cc:Work>
    </rdf:RDF>
  </metadata>
  <sodipodi:namedview
     pagecolor="#ffffff"
     bordercolor="#666666"
     borderopacity="1"
     objecttolerance="10"
     gridtolerance="10"
     guidetolerance="10"
     inkscape:pageopacity="0"
     inkscape:pageshadow="2"
     inkscape:window-width="1366"
     inkscape:window-height="705"
     id="namedview3013"
     showgrid="false"
     inkscape:zoom="21.583333"
     inkscape:cx="16.256694"
     inkscape:cy="11.611409"
     inkscape:window-x="-8"
     inkscape:window-y="-8"
     inkscape:window-maximized="1"
     inkscape:current-layer="svg3001"
     showguides="true"
     inkscape:guide-bbox="true"
     showborder="true"
     inkscape:showpageshadow="true" />
  <desc
     id="desc3005" />
  <defs
     id="defs3007" />
  <g
     id="g3801"
     transform="matrix(1.4398285,0,0,1.4040971,-6.2905887,-1.8382381)"
     inkscape:export-xdpi="600.20001"
     inkscape:export-ydpi="600.20001">
    <g
       style="fill:#0998fa;fill-opacity:1;stroke:#0998fa;stroke-opacity:1"
       transform="matrix(0.17528794,0.02291325,-0.02789077,0.2657329,5.3916092,0.79113727)"
       id="miu">
      <g
         style="fill:#0998fa;fill-opacity:1;stroke:#0998fa;stroke-opacity:1"
         transform="translate(-539,-263)"
         id="Artboard-1">
        <g
           style="fill:#0998fa;fill-opacity:1;stroke:#0998fa;stroke-opacity:1"
           transform="translate(215,119)"
           id="slice" />
        <path
           style="fill:#0998fa;fill-opacity:1;stroke:#0998fa;stroke-opacity:1"
           inkscape:connector-curvature="0"
           id="common-bookmark-book-open-glyph"
           d="M 549.73304,266 542,266 c 0,0 -2,0 -2,2 l 0,14.0949 c 0,0.48812 0.39379,0.88382 0.87949,0.88382 0,0 6.78403,0 8.04241,0 1.25839,0 1.69644,2.02128 1.69644,2.02128 L 551,285 551,267.2332 C 551,266.81873 550.36652,266 549.73304,266 z m 2.5599,0 7.70706,0 c 0,0 2,0 2,2 l 0,14.0949 c 0,0.48812 -0.39379,0.88382 -0.87949,0.88382 0,0 -6.78403,0 -8.04241,0 -1.25839,0 -1.69644,2.02128 -1.69644,2.02128 L 551,285 551,267.22994 C 551,266.8171 551.64647,266 552.29294,266 z m 7.75524,2.32076 0,12.29458 c 5.5e-4,0.21784 -0.25777,0.46811 -0.47287,0.46811 0,0 -5.53282,-0.0441 -6.28412,-0.0441 -0.7513,0 -1.3053,0.91655 -1.3053,0.91655 l 0,-13.40738 c 0,-0.3273 0.2674,-0.59262 0.59205,-0.59262 L 559.5703,268 c 0.21928,0 0.47732,0.10267 0.47788,0.32076 z m -18.06228,0 0,12.29458 c -5.6e-4,0.21784 0.25776,0.46811 0.47286,0.46811 0,0 5.53282,-0.0441 6.28412,-0.0441 0.7513,0 1.3053,0.91655 1.3053,0.91655 l 0,-13.40738 c 0,-0.3273 -0.2674,-0.59262 -0.59204,-0.59262 L 542.46377,268 c -0.21928,0 -0.47732,0.10267 -0.47787,0.32076 z" />
      </g>
    </g>
    <text
       sodipodi:linespacing="125%"
       id="text3017"
       y="4.6795368"
       x="9.405405"
       style="font-size:40px;font-style:normal;font-weight:normal;line-height:125%;letter-spacing:0px;word-spacing:0px;fill:#000000;fill-opacity:1;stroke:none;font-family:Sans"
       xml:space="preserve"><tspan
         style="font-size:4px;font-style:normal;font-variant:normal;font-weight:normal;font-stretch:normal;font-family:GungsuhChe;-inkscape-font-specification:GungsuhChe"
         id="tspan3021"
         y="4.6795368"
         x="9.405405"
         sodipodi:role="line">PWN</tspan></text>
    <text
       sodipodi:linespacing="125%"
       id="text3025"
       y="6.8648643"
       x="9.1737452"
       style="font-size:4px;font-style:normal;font-weight:normal;line-height:125%;letter-spacing:0px;word-spacing:0px;fill:#000000;fill-opacity:1;stroke:none;font-family:Sans"
       xml:space="preserve"><tspan
         style="font-style:normal;font-variant:normal;font-weight:normal;font-stretch:normal;font-family:Segoe UI;-inkscape-font-specification:Segoe UI"
         y="6.8648643"
         x="9.1737452"
         id="tspan3027"
         sodipodi:role="line">reader</tspan></text>
  </g>
</svg>
